<?xml version="1.0"?>
<svg xmlns="http://www.w3.org/2000/svg" id="Capa_1" enable-background="new 0 0 512 512" height="512px" viewBox="0 0 512 512" width="512px"><g><g><g><path d="m99.613 171.957c20.143-67.297 82.624-116.488 156.387-116.488s136.244 49.191 156.387 116.489c13.945 3.808 26.665 12.328 37.479 23.767-11.365-96.995-93.819-172.259-193.866-172.259-100.047 0-182.501 75.264-193.866 172.259 10.814-11.44 23.533-19.96 37.479-23.768z" fill="#f6a96c" data-original="#F6A96C"/></g><path d="m487.422 288.335-1.576-19.71c-1.315-8.391-3.428-16.739-6.245-24.832l-6.211-15.096c-16.171-33.823-44.737-59.976-77.285-59.976-29.672 0-56.034 21.737-72.714 51.203 14.075 21.893 22.609 49.091 22.609 75.049 0 12.661-2.034 24.273-5.747 34.682h138.755c5.383-11.998 8.398-25.827 8.413-41.204v-.001c0-.039.001-.077.001-.115z" fill="#62dbfb" data-original="#62DBFB"/><g><path d="m271.872 24.115c-5.236-.421-10.527-.649-15.872-.649-100.047 0-182.501 75.264-193.866 172.259 10.412-11.015 22.595-19.309 35.933-23.31 19.568-80.507 89.036-141.477 173.805-148.3z" fill="#ea9b58" data-original="#EA9B58"/></g><path d="m188.609 219.924c-16.68-29.466-43.042-51.203-72.714-51.203-37.247 0-69.28 34.247-83.488 75.046l-7.789 41.53c0-.001.001-.003.001-.004-.026 1.016-.042 2.03-.042 3.042 0 15.423 3.017 29.292 8.414 41.32h138.755c-3.712-10.408-5.747-22.021-5.747-34.682.001-25.958 8.535-53.156 22.61-75.049z" fill="#fe93d3" data-original="#FE93D3"/><g><g><g><path d="m61.132 252.867c10.699-38.659 37.587-73.418 70.547-82.077-5.127-1.347-10.4-2.068-15.784-2.068-37.246 0-69.279 34.247-83.487 75.045 10.608.289 20.453 3.603 28.724 9.1z" fill="#fe73c5" data-original="#FE73C5"/></g><g><path d="m24.62 285.293c1.161-.133 2.332-.234 3.514-.292 16.548-.813 31.581 5.736 42.115 16.654 1.485 1.54 3.948 1.631 5.43.088 9.951-10.36 23.943-16.81 39.443-16.81s29.492 6.45 39.443 16.81c1.482 1.543 3.945 1.452 5.43-.088 1.872-1.941 3.893-3.736 6.033-5.384-.005-.435-.026-.861-.026-1.299 0-15.004 2.852-30.422 7.976-44.992-5.21 2.734-9.933 6.27-13.983 10.467-1.485 1.54-3.948 1.631-5.43.088-9.951-10.361-23.943-16.81-39.443-16.81s-29.492 6.45-39.443 16.81c-1.482 1.543-3.944 1.452-5.43-.088-9.618-9.969-22.992-16.276-37.84-16.682-4.688 13.462-7.437 27.636-7.789 41.531-.001-.001 0-.002 0-.003z" fill="#62dbfb" data-original="#62DBFB"/></g><path d="m301.559 193.3-25.993-14.752c-6.304-2.065-12.849-3.189-19.566-3.189-48.759 0-88.589 58.687-91.18 113.935l4.286 36.364c.414 1.351.855 2.683 1.323 3.995h171.142c3.712-10.408 5.747-22.021 5.747-34.682 0-38.129-18.409-78.943-45.759-101.671z" fill="#a2e62e" data-original="#A2E62E"/><path d="m24.62 285.293c1.161-.133 2.332-.234 3.514-.292 10.15-.498 19.724 1.782 28.045 6.132-.022-.927-.034-1.86-.034-2.798 0-11.771 1.757-23.797 4.987-35.468-8.271-5.497-18.117-8.81-28.724-9.1-4.688 13.461-7.436 27.634-7.789 41.528 0-.001.001-.002.001-.002z" fill="#01d0fb" data-original="#01D0FB"/><path d="m64.136 328.654c-4.802-11.059-7.623-23.632-7.958-37.521-8.321-4.35-17.895-6.631-28.045-6.132-1.182.058-2.352.159-3.514.292 0 .001-.001.001-.001.002-.026 1.015-.041 2.029-.041 3.04 0 14.997 2.85 28.525 7.969 40.319z" fill="#fe73c5" data-original="#FE73C5"/></g><g><g><path d="m347.318 294.973c0 12.261-1.923 23.528-5.415 33.682h18.91c-5.12-11.794-7.976-25.321-7.976-40.319 0-47.457 28.516-99.061 67.293-114.791-7.656-3.106-15.709-4.822-24.025-4.822-29.309 0-55.389 21.207-72.098 50.123 14.492 22.073 23.311 49.74 23.311 76.127z" fill="#01d0fb" data-original="#01D0FB"/></g><g fill="#c8effe"><path d="m342.893 261.609 13.463-13.922 14.483 14.978c1.413 1.461 3.359 2.287 5.392 2.287s3.979-.825 5.392-2.286l14.484-14.978 14.483 14.978c1.413 1.461 3.359 2.287 5.392 2.287s3.979-.825 5.392-2.286l14.484-14.978 14.481 14.978c1.407 1.456 3.343 2.28 5.368 2.287h.024c2.016 0 3.948-.812 5.358-2.252l18.514-18.906c-1.794-5.156-3.873-10.205-6.211-15.096l-17.627 18-14.515-15.012c-1.413-1.461-3.358-2.287-5.391-2.287-2.033 0-3.979.825-5.392 2.286l-14.484 14.978-14.483-14.978c-1.413-1.461-3.359-2.287-5.392-2.287s-3.979.825-5.392 2.286l-14.484 14.978-14.483-14.978c-1.413-1.461-3.359-2.287-5.392-2.287s-3.979.825-5.392 2.286l-13.305 13.759c2.051 5.277 3.805 10.686 5.233 16.165z" data-original="#C8EFFE"/><path d="m485.846 268.625-22.945 23.417-16.895-17.474c-1.413-1.461-3.358-2.287-5.391-2.287-2.033 0-3.979.825-5.392 2.286l-16.863 17.438-16.863-17.438c-1.413-1.461-3.359-2.286-5.392-2.286s-3.979.825-5.392 2.287l-16.862 17.438-16.862-17.438c-1.413-1.461-3.359-2.287-5.392-2.287s-3.979.825-5.392 2.286l-.495.511c1.05 6.64 1.606 13.307 1.606 19.894v.024l4.281-4.427 16.862 17.438c1.413 1.461 3.359 2.287 5.392 2.287s3.979-.825 5.392-2.286l16.862-17.438 16.863 17.438c1.413 1.461 3.359 2.286 5.392 2.286s3.979-.825 5.392-2.286l16.862-17.438 16.859 17.437c1.407 1.455 3.343 2.28 5.367 2.287h.025c2.015 0 3.946-.811 5.357-2.251l19.199-19.594c0-.039.001-.077.001-.115 0-6.525-.545-13.13-1.576-19.709z" data-original="#C8EFFE"/></g></g></g><g><g fill="#97d729"><path d="m206.716 247.398c12.414-33.301 36.695-61.699 65.809-69.751-5.361-1.48-10.881-2.288-16.526-2.288-48.759 0-88.589 58.686-91.18 113.935z" data-original="#97D729"/><path d="m169.14 325.722c.303.984.606 1.968.937 2.932h33.122c-3.293-9.58-5.154-20.173-5.355-31.636z" data-original="#97D729"/></g><g><path d="m254.604 329.654 83.376-83.376c-3.65-9.556-8.277-18.688-13.714-27.034l-110.41 110.41z" fill="#fed402" data-original="#FED402"/></g><g><path d="m341.571 329.654c3.712-10.408 5.747-22.021 5.747-34.682 0-3-.121-6.017-.344-9.04l-43.722 43.722z" fill="#fed402" data-original="#FED402"/></g><path d="m275.566 178.548-110.746 110.747c-.089 1.897-.137 3.791-.137 5.678 0 11.093 1.564 21.38 4.447 30.76l132.431-132.431c-7.981-6.634-16.726-11.718-25.995-14.754z" fill="#fed402" data-original="#FED402"/></g><path d="m19.058 359.211v1.054c0 70.841 57.428 128.269 128.269 128.269h217.345c70.841 0 128.269-57.428 128.269-128.269v-1.054z" fill="#f6a96c" data-original="#F6A96C"/><g fill="#ea9b58"><path d="m75.007 408.996c-6.176-15.026-9.591-31.478-9.591-48.73v-1.054h-46.358v1.054c0 17.252 3.414 33.705 9.591 48.73z" data-original="#EA9B58"/><path d="m94.801 441.967h-46.358c23.527 28.443 59.089 46.567 98.885 46.567h46.358c-39.796 0-75.358-18.124-98.885-46.567z" data-original="#EA9B58"/></g><g fill="#fed2a4"><path d="m63.422 359.211h44.967v50.784h-44.967z" data-original="#FED2A4"/><path d="m148.469 359.211h44.967v50.784h-44.967z" data-original="#FED2A4"/><path d="m233.516 359.211h44.967v50.784h-44.967z" data-original="#FED2A4"/><path d="m318.563 359.211h44.967v50.784h-44.967z" data-original="#FED2A4"/><path d="m403.611 359.211h44.967v50.784h-44.967z" data-original="#FED2A4"/></g><path d="m463.557 441.967c8.154-9.858 14.856-20.959 19.794-32.972h-454.702c4.938 12.012 11.639 23.113 19.794 32.972z" fill="#d88a55" data-original="#D88A55"/><path d="m48.443 441.967h46.358c-8.154-9.858-14.856-20.959-19.794-32.972h-46.358c4.938 12.013 11.639 23.114 19.794 32.972z" fill="#c57a44" data-original="#C57A44"/><path d="m506.849 360.212h-501.698c-2.845 0-5.151-2.306-5.151-5.151v-21.255c0-2.845 2.306-5.151 5.151-5.151h501.698c2.845 0 5.151 2.306 5.151 5.151v21.255c0 2.844-2.306 5.151-5.151 5.151z" fill="#ffbd86" data-original="#FFBD86"/><path d="m46.873 355.061v-21.256c0-2.845 2.306-5.151 5.151-5.151h-46.873c-2.845 0-5.151 2.306-5.151 5.151v21.256c0 2.845 2.306 5.151 5.151 5.151h46.873c-2.845 0-5.151-2.307-5.151-5.151z" fill="#f6a96c" data-original="#F6A96C"/><path d="m197.804 294.973c0-15.894 3.201-32.253 8.913-47.575l-41.897 41.897c-.089 1.898-.137 3.791-.137 5.678 0 11.092 1.575 21.371 4.458 30.749l28.704-28.704c-.013-.682-.041-1.357-.041-2.045z" fill="#fac600" data-original="#FAC600" class="active-path" style="fill:#FFCE00" data-old_color="#fac600"/></g></g> </svg>
