<?xml version="1.0" encoding="iso-8859-1"?>
<!-- Generator: Adobe Illustrator 19.0.0, SVG Export Plug-In . SVG Version: 6.00 Build 0)  -->
<svg version="1.1" id="Layer_1" xmlns="http://www.w3.org/2000/svg" xmlns:xlink="http://www.w3.org/1999/xlink" x="0px" y="0px"
	 viewBox="0 0 512 512" style="enable-background:new 0 0 512 512;" xml:space="preserve">
<g>
	<path style="fill:#FF9E78;" d="M172.282,495.706h-33.052l-9.882-33.322c-1.278-4.313-5.813-6.773-10.124-5.493
		c-4.314,1.279-6.773,5.813-5.494,10.126l8.508,28.691h-13.037c-4.499,0-8.146,3.647-8.146,8.146c0,4.499,3.647,8.146,8.146,8.146
		h23.919c0.009,0,0.017,0.002,0.026,0.002c0.01,0,0.02-0.002,0.029-0.002h39.107c4.499,0,8.146-3.647,8.146-8.146
		C180.427,499.354,176.781,495.706,172.282,495.706z"/>
	<path style="fill:#FF9E78;" d="M268.477,495.706h-33.052l-9.882-33.322c-1.278-4.313-5.813-6.773-10.126-5.493
		c-4.313,1.279-6.773,5.813-5.493,10.126l8.508,28.691h-13.037c-4.499,0-8.146,3.647-8.146,8.146c0,4.499,3.647,8.146,8.146,8.146
		h23.92c0.009,0,0.017,0.002,0.026,0.002c0.01,0,0.02-0.002,0.029-0.002h39.107c4.499,0,8.146-3.647,8.146-8.146
		C276.622,499.354,272.975,495.706,268.477,495.706z"/>
</g>
<path style="fill:#FFD77A;" d="M10.35,381.597c-3.982,17.59,0.468,34.739,13.181,44.095s30.408,8.507,46.021-0.523
	c3.982-17.59-0.468-34.739-13.181-44.095C43.658,371.716,25.962,372.565,10.35,381.597z"/>
<path style="fill:#E6C26E;" d="M247.95,236.393c79.186,67.71,77.299,240.671-77.001,240.671S14.761,304.102,93.948,236.393H247.95z"
	/>
<path style="fill:#FFD77A;" d="M298.814,152.402c-6.272-12.641-10.943-25.971-14.518-39.622
	c-10.779-41.173-43.4-73.505-84.735-83.88l0,0c15.398-15.22,17.988-28.676,17.988-28.676s-24.36-2.262-37.855,7.625
	c-5.191,3.803-12.301,3.803-17.491,0c-13.496-9.888-37.855-7.625-37.855-7.625s2.589,13.455,17.988,28.676l0,0
	c-41.334,10.375-73.955,42.707-84.734,83.879c-3.574,13.651-8.246,26.983-14.518,39.622C28.009,182.782,33,272.874,170.949,272.874
	S313.889,182.783,298.814,152.402z"/>
<g style="opacity:0.1;">
	<path d="M142.336,28.899c-41.335,10.375-73.956,42.706-84.735,83.88c-3.574,13.651-8.246,26.983-14.518,39.622
		C28.009,182.783,33,272.876,170.949,272.876c5.658,0,11.073-0.166,16.291-0.459C65.228,265.57,61.21,181.536,75.666,152.402
		c6.272-12.64,10.943-25.971,14.518-39.622C100.963,71.605,101.001,39.274,142.336,28.899L142.336,28.899z"/>
</g>
<path style="fill:#FFA0C1;" d="M295.356,492.023c-62.264-23.627-109.846-95.585-67.167-208.059s142.536-176.301,204.146-152.922
	s93.985,137.383,51.305,249.857S357.62,515.651,295.356,492.023z"/>
<path style="opacity:0.1;enable-background:new    ;" d="M290.582,311.38c15.251-92.567,70.444-163.017,124.844-184.472
	c-61.665-7.743-148.273,54.378-187.236,157.056c-42.68,112.475,4.901,184.432,67.167,208.059
	c24.388,9.254,52.01,11.464,79.156,3.971C318.571,475.825,273.352,415.96,290.582,311.38z"/>
<g>
	<circle style="fill:#43434D;" cx="117.449" cy="131.698" r="12.339"/>
	<circle style="fill:#43434D;" cx="224.45" cy="131.698" r="12.339"/>
</g>
<path style="fill:#ED9472;" d="M213.223,175.277l-42.275-14.136l-42.275,14.141c0,0.049-0.004,0.098-0.004,0.148
	c0,19.072,18.929,34.532,42.279,34.532s42.279-15.46,42.279-34.532C213.229,175.377,213.223,175.327,213.223,175.277z"/>
<path style="fill:#FF9E78;" d="M170.949,181.384c15.886,0,30.528-2.276,42.23-6.106l0.045-0.002
	c-0.101-19.001-18.987-34.38-42.275-34.38c-23.29,0-42.177,15.381-42.275,34.384l0.043-0.003
	C140.421,179.107,155.063,181.384,170.949,181.384z"/>
<path style="fill:#FFDA87;" d="M177.214,262.812c-1.36-0.509-2.72-0.998-4.08-1.469c-55.113-19.069-85.9,63.199-31.808,84.997
	c1.335,0.538,2.683,1.062,4.042,1.57c43.511,16.283,87.583,12.955,114.588-5.626C251.785,310.539,220.725,279.094,177.214,262.812z"
	/>
<g>
</g>
<g>
</g>
<g>
</g>
<g>
</g>
<g>
</g>
<g>
</g>
<g>
</g>
<g>
</g>
<g>
</g>
<g>
</g>
<g>
</g>
<g>
</g>
<g>
</g>
<g>
</g>
<g>
</g>
</svg>
