<svg id="Capa_1" enable-background="new 0 0 512 512" height="512" viewBox="0 0 512 512" width="512" xmlns="http://www.w3.org/2000/svg"><g><g><path d="m208.601 275.316c-24.826-.299-52.177 21.733-70.125 55.178-4.963 9.249 1.579 22.529-1.693 33.293-2.998 9.859-15.967 17.1-17.141 27.859-.578 5.297-.911 10.681-.977 16.131-.587 48.783 38.532 84.787 87.314 85.374 48.783.587 88.756-34.466 89.343-83.248.074-6.185-.198-12.293-.783-18.291-1.026-10.509-10.851-19.365-13.624-29.035-3.205-11.176.379-22.997-4.647-32.561-17.17-32.675-43.37-54.408-67.667-54.7z" fill="#e27c48"/><path d="m208.601 275.316c-6.373-.077-12.911 1.321-19.415 4.002 35.461 14.802 69.253 68.847 68.51 130.584-.505 41.937-30.127 73.703-69.421 81.427 5.713 1.126 11.634 1.749 17.704 1.822 48.783.587 88.756-34.466 89.343-83.248.074-6.139-.194-12.203-.771-18.159-1.197-12.362-12.777-20.245-16.348-31.407-2.987-9.336 2.346-22.173-1.931-30.313-17.169-32.679-43.372-54.416-67.671-54.708z" fill="#dd552d"/><path d="m276.232 329.953-18.982 9.363c-6.271 3.093-13.625 3.094-19.896 0l-20.423-10.074c-6.271-3.093-13.625-3.093-19.896 0l-20.421 10.073c-6.271 3.093-13.625 3.093-19.896 0l-18.162-8.959c-9.548 17.749-16.447 38.719-18.909 61.281 5.469-1.709 11.434-1.284 16.652 1.29l20.42 10.073c6.271 3.094 13.625 3.094 19.896 0l20.421-10.073c6.271-3.093 13.625-3.093 19.896 0l20.423 10.074c6.271 3.093 13.625 3.093 19.896 0l20.422-10.074c5.287-2.608 11.341-3.01 16.869-1.221-2.207-22.718-8.904-43.875-18.31-61.753z" fill="#efcb83"/><path d="m294.541 391.706c-.962-9.905-2.779-19.518-5.301-28.688-.016-.058-.032-.116-.048-.174-3.192-11.556-7.594-22.694-12.96-32.891l-18.982 9.363c-4.139 2.042-8.748 2.727-13.207 2.074 7.855 18.306 12.895 39.281 13.571 61.431l20.058-9.894c5.287-2.608 11.34-3.011 16.869-1.221z" fill="#dbb56a"/><path d="m373.654 453.025c-23.71 8.734-43.428 28.143-54.141 51.338h-225.032c-10.713-23.195-30.432-42.603-54.141-51.338-1.116-.411-.938-2.041.244-2.175 23.769-2.694 48.981-1.215 71.407 6.784.959.342 1.844-.646 1.391-1.559-7.489-15.117-19.262-28.344-33.879-36.677-1.02-.581-.602-2.13.572-2.105 46.827 1.009 92.938 21.984 124.449 56.645 1.319 1.451 3.626 1.451 4.945 0 31.511-34.661 77.623-55.636 124.449-56.645 1.173-.025 1.591 1.524.572 2.105-14.618 8.334-26.39 21.561-33.879 36.677-.452.913.432 1.901 1.391 1.559 22.426-7.999 47.639-9.477 71.407-6.784 1.182.134 1.361 1.763.245 2.175z" fill="#94d4a2"/><path d="m404.589 37.526-100.292 52.011-64.684 19.35-76.327 49.589c-3.008 1.955-5.226 4.913-6.257 8.349l-19.621 65.349c-1.438 4.791 1.279 9.84 6.07 11.279l.683.205c15.296 4.593 31.418-4.084 36.01-19.38l11.194-37.282c.153-.508.48-.946.925-1.235l36.761-23.889c9.874-6.417 22.64-6.26 32.354.397 12.71 8.71 16.443 25.809 8.52 39.024l-17.847 29.768c-5.907 9.852-2.927 22.614 6.732 28.832 10.005 6.441 23.348 3.425 29.61-6.693l66.666-107.709 83.138-43.115z" fill="#faa68e"/><path d="m333.797 54.79h92.821v73.056h-92.821z" fill="#e09380" transform="matrix(.888 -.46 .46 .888 .647 185.289)"/><path d="m422.026.573-71.905 37.293c-6.466 3.353-8.989 11.313-5.635 17.779l44.304 85.423c3.353 6.466 11.313 8.989 17.779 5.635l71.905-37.293c2.496-1.295 3.471-4.368 2.176-6.864l-51.759-99.797c-1.295-2.497-4.368-3.471-6.865-2.176z" fill="#94d4a2"/><path d="m467.631 77.443 2.384 4.597-76.425 39.637c-6.466 3.353-14.018 1.616-16.868-3.88l12.069 23.27c3.353 6.466 11.313 8.989 17.779 5.635l71.905-37.293c2.496-1.295 3.47-4.368 2.176-6.864z" fill="#6dc17d"/></g><path d="m377.935 512h-339.52c-4.219 0-7.638-3.42-7.638-7.638s3.419-7.638 7.638-7.638h339.52c4.219 0 7.638 3.42 7.638 7.638s-3.42 7.638-7.638 7.638z" fill="#6dc17d"/></g></svg>