<svg id="Capa_1" enable-background="new 0 0 512 512" height="512" viewBox="0 0 512 512" width="512" xmlns="http://www.w3.org/2000/svg"><g><path d="m250.743 410.033h-155.225c14.348-76.221-41.55-165.697-67.481-191.983-.731-.741-.069-1.812.97-1.746 102.168 6.509 218.74 151.033 221.736 193.729z" fill="#94d4a2"/><path d="m29.007 216.304c-1.038-.066-1.7 1.005-.97 1.746 1.544 1.565 3.197 3.361 4.932 5.358 80.016 30.635 160.04 148.731 162.35 186.625h55.424c-2.996-42.696-119.568-187.22-221.736-193.729z" fill="#6dc17d"/><path d="m125.261 410.033h-68.933c-8.76-28.965-27.213-55.023-51.892-72.588-.797-.567-.461-1.807.514-1.893 12.233-1.081 24.906.303 36.484 4.346.765.267 1.54-.387 1.379-1.181-5.898-29.103-20.512-56.45-42.473-76.384-.731-.663-.192-1.876.792-1.805 38.573 2.81 72.391 29.191 93.056 62.094 16.571 26.384 25.508 56.606 31.073 87.411z" fill="#94d4a2"/><g><path d="m280.568 95.333c-35.064-6.725-79.286 18.06-113.01 61.649-8.871 11.466-8.285 29.042-15.346 42.88-7.081 13.878-21.803 24.023-26.343 39.82-2.162 7.526-3.995 15.242-5.46 23.125-12.99 69.917 33.336 131.537 102.153 144.734 68.816 13.198 134.064-27.025 147.054-96.942 1.647-8.864 2.784-17.704 3.452-26.468 1.548-20.326-6.258-39.23-9.286-58.055-10.933-67.972-41.716-122.785-83.214-130.743z" fill="#e27c48"/><path d="m280.568 95.333c-3.391-.65-6.871-.995-10.416-1.067 45.35 18.175 80.202 111.47 61.989 209.26-12.348 66.302-64.144 107.313-119.331 101.782 3.196.853 6.448 1.6 9.752 2.234 68.817 13.198 134.064-27.025 147.054-96.942 1.642-8.837 2.778-17.652 3.446-26.39.817-10.682-4.996-22.075-5.507-32.431-.358-7.261 4.906-13.592 3.954-20.611-9.604-70.832-48.209-127.64-90.941-135.835z" fill="#dd552d"/><path d="m362.557 190.935-29.169 8.641c-9.636 2.855-20.032.993-28.126-5.038l-26.36-19.641c-8.094-6.031-18.49-7.894-28.126-5.039l-31.379 9.297c-9.637 2.855-20.032.992-28.127-5.039l-23.441-17.467c-17.922 23.075-32.902 51.446-42.007 83.228 8.158-1.069 16.484 1.051 23.219 6.069l26.355 19.638c8.095 6.032 18.49 7.894 28.127 5.039l31.379-9.296c9.636-2.855 20.032-.993 28.126 5.038l26.36 19.641c8.094 6.031 18.49 7.893 28.126 5.038l31.381-9.297c8.124-2.407 16.782-1.452 24.152 2.518 2.545-33.187-1.649-65.269-10.49-93.33z" fill="#efcb83"/><path d="m373.047 284.266c1.109-14.465.936-28.721-.342-42.525-.01-.102-.019-.204-.028-.306-1.632-17.397-5.072-34.477-10.12-50.5 0 0-29.692 8.778-29.953 8.848 4.81 26.423 5.994 55.845 2.258 86.122l14.033-4.157c8.124-2.407 16.783-1.452 24.152 2.518z" fill="#dbb56a"/></g><path d="m445.95 260.141c-1.977 0-3.955-.755-5.464-2.263l-26.658-26.658c-3.017-3.018-3.017-7.909 0-10.928 3.018-3.016 7.909-3.016 10.928 0l26.658 26.658c3.017 3.018 3.017 7.909 0 10.928-1.51 1.508-3.487 2.263-5.464 2.263z" fill="#655e67"/><path d="m507.251 313.716c-6.332 6.332-16.599 6.332-22.932 0l-46.31-46.31c-1.947-1.947-1.947-5.103 0-7.05l15.881-15.881c1.947-1.947 5.103-1.947 7.05 0l46.31 46.31c6.333 6.331 6.333 16.598.001 22.931z" fill="#94d4a2"/><ellipse cx="376.538" cy="183.003" fill="#8c818f" rx="71.346" ry="71.346" transform="matrix(.526 -.851 .851 .526 22.909 407.094)"/><ellipse cx="376.538" cy="183.003" fill="#80b6fc" rx="42.12" ry="42.12" transform="matrix(.526 -.851 .851 .526 22.909 407.094)"/><path d="m422.706 417.76h-396.127c-4.268 0-7.726-3.459-7.726-7.726s3.459-7.726 7.726-7.726h396.127c4.268 0 7.726 3.459 7.726 7.726s-3.458 7.726-7.726 7.726z" fill="#6dc17d"/></g></svg>