<?xml version="1.0" standalone="no"?><svg xmlns="http://www.w3.org/2000/svg" viewBox="0 0 1440 320"><path fill="#000000" fill-opacity="0.05" d="M0,224L12.6,202.7C25.3,181,51,139,76,122.7C101.1,107,126,117,152,144C176.8,171,202,213,227,208C252.6,203,278,149,303,122.7C328.4,96,354,96,379,90.7C404.2,85,429,75,455,58.7C480,43,505,21,531,26.7C555.8,32,581,64,606,101.3C631.6,139,657,181,682,186.7C707.4,192,733,160,758,165.3C783.2,171,808,213,834,240C858.9,267,884,277,909,256C934.7,235,960,181,985,181.3C1010.5,181,1036,235,1061,245.3C1086.3,256,1112,224,1137,192C1162.1,160,1187,128,1213,117.3C1237.9,107,1263,117,1288,122.7C1313.7,128,1339,128,1364,128C1389.5,128,1415,128,1427,128L1440,128L1440,320L1427.4,320C1414.7,320,1389,320,1364,320C1338.9,320,1314,320,1288,320C1263.2,320,1238,320,1213,320C1187.4,320,1162,320,1137,320C1111.6,320,1086,320,1061,320C1035.8,320,1011,320,985,320C960,320,935,320,909,320C884.2,320,859,320,834,320C808.4,320,783,320,758,320C732.6,320,707,320,682,320C656.8,320,632,320,606,320C581.1,320,556,320,531,320C505.3,320,480,320,455,320C429.5,320,404,320,379,320C353.7,320,328,320,303,320C277.9,320,253,320,227,320C202.1,320,177,320,152,320C126.3,320,101,320,76,320C50.5,320,25,320,13,320L0,320Z"></path></svg>